<svg fill="none" xmlns="http://www.w3.org/2000/svg" viewBox="0 0 24 24">
  <g clip-path="url(#oaBOir2ReM6ca)" stroke="#707A8F" stroke-width="2" stroke-linecap="round" stroke-linejoin="round">
    <path d="M14 3v4a1 1 0 001 1h4"/>
    <path d="M17 21H7a2 2 0 01-2-2V5a2 2 0 012-2h7l5 5v11a2 2 0 01-2 2z"/>
    <path d="M14 11h-2.5a1.5 1.5 0 100 3h1a1.5 1.5 0 110 3H10m2 0v1m0-8v1"/>
  </g>
  <defs>
    <clipPath id="oaBOir2ReM6ca">
      <path fill="#fff" d="M0 0h24v24H0z"/>
    </clipPath>
  </defs>
</svg>
