<svg fill="none" xmlns="http://www.w3.org/2000/svg" viewBox="0 0 20 20">
  <g clip-path="url(#IQRfqc-VnAAKa)" stroke="#707A8F" stroke-width="1.75" stroke-linecap="round" stroke-linejoin="round">
    <path d="M3.333 4.167a.833.833 0 01.834-.834H7.5a.833.833 0 01.833.834V7.5a.833.833 0 01-.833.833H4.167a.833.833 0 01-.834-.833V4.167zm8.334 0a.834.834 0 01.833-.834h3.333a.833.833 0 01.834.834V7.5a.833.833 0 01-.834.833H12.5a.833.833 0 01-.833-.833V4.167zM3.333 12.5a.833.833 0 01.834-.833H7.5a.834.834 0 01.833.833v3.333a.833.833 0 01-.833.834H4.167a.833.833 0 01-.834-.834V12.5zm8.334 0a.834.834 0 01.833-.833h3.333a.834.834 0 01.834.833v3.333a.833.833 0 01-.834.834H12.5a.833.833 0 01-.833-.834V12.5z"/>
  </g>
  <defs>
    <clipPath id="IQRfqc-VnAAKa">
      <path fill="#fff" d="M0 0h20v20H0z"/>
    </clipPath>
  </defs>
</svg>
