<svg fill="none" xmlns="http://www.w3.org/2000/svg" viewBox="0 0 24 24">
  <g clip-path="url(#MalbMSyM-xp7a)" stroke="#505766" stroke-width="2" stroke-linecap="round" stroke-linejoin="round">
    <path d="M4 5a1 1 0 011-1h4a1 1 0 011 1v4a1 1 0 01-1 1H5a1 1 0 01-1-1V5zm10 0a1 1 0 011-1h4a1 1 0 011 1v4a1 1 0 01-1 1h-4a1 1 0 01-1-1V5zM4 15a1 1 0 011-1h4a1 1 0 011 1v4a1 1 0 01-1 1H5a1 1 0 01-1-1v-4zm10 0a1 1 0 011-1h4a1 1 0 011 1v4a1 1 0 01-1 1h-4a1 1 0 01-1-1v-4z"/>
  </g>
  <defs>
    <clipPath id="MalbMSyM-xp7a">
      <path fill="#fff" d="M0 0h24v24H0z"/>
    </clipPath>
  </defs>
</svg>
