<svg fill="none" xmlns="http://www.w3.org/2000/svg" viewBox="0 0 520 216">
  <g clip-path="url(#z5BSBEyWaZbpa)" stroke-width="2">
    <path d="M0 88.327h-1V217h522V104.724h-1c-1.232 0-2.414-.611-3.656-1.725-1.247-1.118-2.429-2.627-3.681-4.23l-.033-.042c-1.214-1.555-2.497-3.198-3.888-4.446-1.409-1.264-3.051-2.237-4.992-2.237-2.011 0-3.672 1.21-5.058 2.708-1.384 1.496-2.66 3.465-3.876 5.34l-.03.047c-1.251 1.931-2.441 3.761-3.696 5.117-1.265 1.367-2.428 2.067-3.59 2.067-3.124 0-5.56-.219-8.035-.442l-.01-.001c-2.474-.222-4.987-.448-8.205-.448-1.841 0-3.441.666-4.867 1.587-1.397.903-2.688 2.094-3.902 3.214l-.034.031c-1.252 1.154-2.426 2.234-3.666 3.035-1.224.791-2.449 1.267-3.781 1.267-.402 0-.907-.217-1.533-.881-.621-.658-1.254-1.647-1.899-2.916-1.29-2.536-2.506-5.943-3.751-9.438l-.017-.048c-1.225-3.44-2.481-6.962-3.835-9.625-.68-1.337-1.415-2.52-2.228-3.382-.808-.858-1.803-1.509-2.987-1.509-1.063 0-2.213-.822-3.518-2.599-1.268-1.727-2.469-4.054-3.718-6.48l-.026-.051c-1.219-2.369-2.486-4.832-3.858-6.7-1.345-1.831-3.02-3.415-5.13-3.415-3.51 0-6.223 2.05-8.619 3.862l-.109.082c-2.529 1.912-4.739 3.54-7.522 3.54-1.115 0-2.27-.757-3.553-2.31-1.261-1.526-2.456-3.585-3.707-5.744l-.028-.049c-1.217-2.102-2.489-4.3-3.867-5.968-1.367-1.654-3.037-3.036-5.095-3.036-3.411 0-6.069 1.335-8.508 2.56l-.066.033c-2.494 1.252-4.771 2.38-7.676 2.38-2.762 0-4.963-1.717-7.499-3.752l-.118-.094c-2.387-1.915-5.106-4.097-8.633-4.097-1.281 0-2.482-.547-3.712-1.498-1.242-.96-2.42-2.256-3.672-3.638l-.034-.037c-1.214-1.34-2.501-2.76-3.896-3.84-1.42-1.097-3.044-1.916-4.936-1.916-3.548 0-6.275 2.357-8.651 4.41l-.128.11c-2.546 2.2-4.737 4.033-7.471 4.033s-4.925-1.834-7.471-4.033l-.128-.11c-2.376-2.053-5.103-4.41-8.651-4.41-1.92 0-3.555.907-4.969 2.102-1.393 1.176-2.678 2.725-3.892 4.189l-.034.04c-1.252 1.51-2.432 2.928-3.676 3.979-1.237 1.044-2.426 1.63-3.679 1.63-3.419 0-6.082 1.39-8.519 2.66l-.069.036c-2.496 1.303-4.767 2.47-7.662 2.47-3.022 0-5.38-.65-7.858-1.337l-.032-.01c-2.464-.683-5.051-1.401-8.36-1.401-1.947 0-3.592.995-4.999 2.282-1.39 1.273-2.673 2.947-3.887 4.533l-.033.043c-1.252 1.635-2.435 3.174-3.682 4.315-1.244 1.138-2.423 1.759-3.649 1.759-1.885 0-3.506.798-4.927 1.873-1.396 1.056-2.684 2.446-3.898 3.756l-.034.037c-1.252 1.352-2.429 2.618-3.67 3.557-1.23.93-2.433 1.468-3.721 1.468-.502 0-1.038-.202-1.637-.679-.606-.482-1.224-1.206-1.859-2.143-1.273-1.88-2.477-4.412-3.726-7.044l-.023-.05c-1.221-2.572-2.485-5.237-3.853-7.257-.691-1.02-1.441-1.927-2.269-2.587-.835-.664-1.798-1.114-2.883-1.114-1.258 0-2.449-.579-3.684-1.606-1.244-1.035-2.424-2.432-3.676-3.919l-.034-.04c-1.213-1.441-2.499-2.968-3.893-4.127-1.415-1.178-3.048-2.07-4.963-2.07-1.318 0-2.329.973-3.083 2.065-.788 1.141-1.506 2.717-2.178 4.522-1.343 3.608-2.591 8.394-3.821 13.111l-.011.041c-1.242 4.765-2.467 9.457-3.77 12.96-.654 1.756-1.304 3.148-1.95 4.083-.68.986-1.169 1.2-1.437 1.2-3.426 0-6.095 1.44-8.528 2.755l-.072.038c-2.499 1.35-4.764 2.553-7.65 2.553-1.333 0-2.558-.475-3.782-1.264-1.24-.8-2.414-1.877-3.666-3.028l-.033-.031c-1.215-1.118-2.506-2.306-3.903-3.207-1.426-.919-3.026-1.583-4.866-1.583-.468 0-.991-.21-1.597-.746-.611-.54-1.234-1.351-1.873-2.4-1.28-2.1-2.488-4.925-3.735-7.847l-.022-.05c-1.222-2.862-2.482-5.816-3.845-8.052-.687-1.127-1.432-2.128-2.255-2.857-.829-.733-1.804-1.248-2.923-1.248-1.994 0-3.652 1.152-5.043 2.594-1.386 1.436-2.664 3.326-3.879 5.123l-.031.046c-1.252 1.85-2.44 3.602-3.693 4.9-1.258 1.305-2.425 1.983-3.604 1.983-3.457 0-6.143 1.653-8.564 3.143l-.085.052c-2.509 1.543-4.752 2.898-7.601 2.898-2.116 0-3.791 1.61-5.134 3.463-1.371 1.894-2.638 4.39-3.857 6.793l-.026.05c-1.249 2.462-2.45 4.823-3.719 6.576-1.308 1.806-2.457 2.636-3.514 2.636-3.36 0-5.983 1.012-8.437 1.958l-.048.018c-2.483.957-4.8 1.841-7.765 1.841-1.155 0-2.316-.708-3.584-2.104-1.256-1.383-2.446-3.249-3.697-5.215l-.03-.047c-1.216-1.911-2.492-3.916-3.875-5.439-1.383-1.522-3.046-2.76-5.064-2.76-3.493 0-6.197 1.916-8.602 3.619l-.1.071c-2.523 1.785-4.743 3.322-7.548 3.322-3.331 0-5.934.843-8.395 1.64l-.038.012c-2.48.803-4.82 1.555-7.817 1.555-1.258 0-2.45-.578-3.684-1.606-1.244-1.035-2.424-2.431-3.676-3.918l-.034-.04c-1.213-1.442-2.499-2.968-3.893-4.128C3.548 89.22 1.915 88.327 0 88.327z" stroke="#DBCCFF"/>
    <path d="M0 144.532h-1V217h522v-40.681h-1c-3.494 0-6.231-1.349-9.184-2.821l-.065-.032c-2.898-1.445-6.014-2.998-10.01-2.998-3.857 0-6.87.584-9.798 1.152l-.022.004c-2.934.569-5.785 1.119-9.44 1.119-3.522 0-6.277-1.208-9.224-2.514l-.057-.025c-2.905-1.288-6.005-2.661-9.978-2.661-3.324 0-5.974-2.218-8.978-4.798l-.131-.112c-2.832-2.432-6.017-5.167-10.15-5.167-3.694 0-6.575-.351-9.509-.708l-.013-.002c-2.931-.357-5.916-.721-9.737-.721-1.34 0-2.75-1.076-4.308-3.281-1.516-2.144-2.948-5.029-4.426-8.013l-.025-.05c-1.448-2.925-2.944-5.944-4.559-8.23-1.583-2.239-3.521-4.126-5.942-4.126-3.87 0-6.894.67-9.82 1.318l-.026.006c-2.934.65-5.773 1.277-9.413 1.277-1.288 0-2.41.633-3.365 1.535-.953.901-1.822 2.145-2.628 3.56-1.605 2.815-3.093 6.539-4.545 10.175l-.02.049c-1.476 3.694-2.916 7.294-4.445 9.975-.764 1.34-1.518 2.391-2.265 3.097-.744.704-1.399.989-1.991.989-3.67 0-6.532-.474-9.466-.961l-.019-.003c-2.929-.487-5.931-.986-9.774-.986-1.485 0-2.916-.828-4.416-2.336-1.497-1.504-2.913-3.529-4.394-5.653l-.032-.046c-1.444-2.071-2.952-4.234-4.584-5.875-1.641-1.649-3.558-2.925-5.834-2.925-2.176 0-4.058.915-5.725 2.167-1.641 1.233-3.158 2.86-4.601 4.407l-.035.037c-1.481 1.588-2.887 3.091-4.374 4.208-1.474 1.108-2.94 1.766-4.524 1.766-3.537 0-6.301-1.138-9.246-2.361l-.052-.022c-2.909-1.208-6.001-2.493-9.961-2.493-3.897 0-6.941.843-9.864 1.653l-.033.009c-2.936.813-5.752 1.589-9.362 1.589-3.83 0-6.821.414-9.752.82l-.015.002c-2.934.406-5.808.803-9.493.803-1.608 0-3.085-.615-4.556-1.631-1.486-1.026-2.89-2.406-4.371-3.867l-.035-.034c-1.443-1.422-2.962-2.919-4.604-4.054-1.67-1.153-3.54-1.985-5.693-1.985-4.001 0-7.12 1.59-10.016 3.066l-.068.034c-2.954 1.506-5.686 2.882-9.175 2.882-3.83 0-6.821.414-9.752.82l-.015.002c-2.933.406-5.807.803-9.492.803-2.134 0-3.995.769-5.667 1.846-1.642 1.058-3.162 2.455-4.606 3.782l-.034.031c-1.481 1.361-2.884 2.648-4.37 3.605-1.469.946-2.956 1.526-4.583 1.526-1.597 0-3.069-.634-4.541-1.691-1.486-1.067-2.891-2.503-4.373-4.021l-.034-.035c-1.443-1.478-2.961-3.034-4.603-4.213-1.669-1.198-3.545-2.067-5.708-2.067-1.412 0-2.828-.95-4.356-2.787-1.506-1.812-2.93-4.251-4.409-6.79l-.029-.05c-1.446-2.482-2.948-5.059-4.572-7.012-1.613-1.941-3.544-3.509-5.893-3.509-.648 0-1.324-.263-2.055-.846-.739-.589-1.484-1.465-2.241-2.584-1.519-2.246-2.953-5.264-4.43-8.382l-.024-.051c-1.45-3.058-2.943-6.209-4.557-8.594-.813-1.203-1.69-2.262-2.651-3.028-.968-.771-2.069-1.282-3.301-1.282-2.172 0-4.051.896-5.719 2.125-1.641 1.21-3.159 2.808-4.601 4.326l-.035.036c-1.481 1.559-2.887 3.034-4.374 4.13-1.473 1.086-2.941 1.735-4.53 1.735-3.64 0-6.48-.626-9.414-1.277l-.025-.005c-2.927-.649-5.95-1.318-9.821-1.318-3.973 0-7.072 1.373-9.978 2.66l-.057.026c-2.947 1.305-5.701 2.514-9.224 2.514-3.413 0-6.102-1.756-9.076-3.733l-.096-.063c-2.869-1.908-6.024-4.005-10.087-4.005-2.28 0-4.197 1.287-5.837 2.948-1.632 1.653-3.14 3.833-4.584 5.92l-.031.046c-1.481 2.14-2.898 4.182-4.395 5.698-1.5 1.52-2.931 2.354-4.413 2.354-2.172 0-4.052.901-5.72 2.136-1.641 1.217-3.159 2.822-4.602 4.348l-.034.036c-1.482 1.567-2.887 3.05-4.374 4.152-1.473 1.092-2.941 1.743-4.529 1.743z" stroke="#FCE2AA"/>
    <path d="M0 135.221h-1V217h522v-82.755h-1c-2.352 0-4.284 1.583-5.896 3.537-1.624 1.969-3.125 4.567-4.571 7.07l-.028.049c-1.48 2.561-2.904 5.02-4.411 6.847-1.529 1.854-2.945 2.81-4.353 2.81-3.923 0-6.987 1.02-9.905 1.991l-.041.013c-2.938.978-5.733 1.901-9.314 1.901-3.367 0-6.035-1.986-9.024-4.259l-.113-.086c-2.851-2.168-6.023-4.581-10.122-4.581-3.353 0-6.015-2.062-9.008-4.434l-.119-.094c-2.845-2.254-6.022-4.772-10.132-4.772-4.064 0-7.219 2.099-10.088 4.007l-.095.063c-2.975 1.978-5.664 3.736-9.076 3.736-3.587 0-6.387-.891-9.325-1.832l-.038-.013c-2.92-.935-5.98-1.915-9.897-1.915-4.143 0-7.332 2.843-10.158 5.361l-.136.122c-3.01 2.682-5.655 4.977-8.965 4.977-3.555 0-6.332-1.048-9.274-2.167l-.047-.018c-2.913-1.107-5.994-2.279-9.938-2.279-3.606 0-6.419-.798-9.355-1.635l-.034-.01c-2.922-.833-5.97-1.702-9.87-1.702-3.938 0-7.013 1.121-9.928 2.184l-.044.016c-2.941 1.072-5.724 2.079-9.288 2.079-.538 0-1.179-.301-1.942-1.131-.755-.823-1.517-2.047-2.286-3.601-1.536-3.104-2.982-7.267-4.456-11.517l-.017-.047c-1.455-4.195-2.939-8.473-4.537-11.702-.802-1.62-1.662-3.039-2.606-4.067-.937-1.021-2.073-1.778-3.415-1.778-3.39 0-6.068-1.873-9.049-3.998l-.104-.074c-2.86-2.04-6.024-4.296-10.106-4.296-1.254 0-2.365.558-3.328 1.381-.959.819-1.832 1.951-2.643 3.236-1.609 2.553-3.101 5.928-4.551 9.211l-.022.051c-1.477 3.342-2.914 6.587-4.437 9.002-.76 1.206-1.508 2.149-2.25 2.783-.736.629-1.402.901-2.028.901-1.281 0-2.401.617-3.358 1.503-.954.883-1.824 2.103-2.631 3.49-1.606 2.758-3.094 6.407-4.547 9.966l-.02.05c-1.476 3.618-2.916 7.141-4.443 9.765-.763 1.311-1.516 2.339-2.262 3.029-.742.688-1.399.97-1.999.97-4.097 0-7.267 2.393-10.12 4.544l-.111.085c-2.988 2.253-5.657 4.225-9.028 4.225-3.926 0-6.994 1.046-9.911 2.04l-.041.014c-2.94 1.003-5.731 1.948-9.307 1.948-.512 0-1.148-.307-1.92-1.206-.761-.886-1.526-2.203-2.297-3.868-1.54-3.326-2.988-7.784-4.462-12.327l-.014-.046c-1.457-4.489-2.939-9.058-4.534-12.505-.8-1.727-1.657-3.237-2.595-4.33-.928-1.08-2.069-1.903-3.437-1.903-3.58 0-6.374-.93-9.313-1.913l-.04-.014c-2.918-.977-5.983-2.003-9.907-2.003-1.544 0-2.993-.728-4.476-1.991-1.49-1.269-2.899-2.978-4.381-4.78l-.034-.041c-1.443-1.754-2.957-3.595-4.595-4.99-1.658-1.413-3.556-2.469-5.773-2.469-2.338 0-4.268 1.525-5.886 3.424-1.625 1.908-3.127 4.425-4.573 6.847l-.029.049c-1.48 2.48-2.903 4.858-4.408 6.624-1.523 1.789-2.941 2.722-4.363 2.722-1.526 0-2.969-.76-4.456-2.098-1.492-1.341-2.904-3.147-4.385-5.049l-.034-.043c-1.443-1.851-2.955-3.792-4.591-5.263-1.654-1.487-3.558-2.61-5.793-2.61-2.371 0-4.305 1.662-5.91 3.692-1.621 2.052-3.12 4.76-4.567 7.373l-.028.05c-1.479 2.672-2.905 5.242-4.415 7.152-1.536 1.945-2.95 2.933-4.34 2.933-3.555 0-6.332-1.048-9.274-2.167l-.047-.018c-2.913-1.107-5.993-2.279-9.938-2.279-1.583 0-3.048-.66-4.523-1.771-1.487-1.12-2.893-2.628-4.374-4.221l-.035-.037c-1.442-1.551-2.96-3.183-4.6-4.419-1.668-1.256-3.55-2.174-5.727-2.174-4.075 0-7.236 2.198-10.1 4.188l-.1.07c-2.98 2.071-5.661 3.901-9.06 3.901-3.831 0-6.824.427-9.754.845l-.016.002c-2.934.418-5.806.827-9.489.827-3.482 0-6.21-1.41-9.166-2.955l-.07-.036c-2.894-1.513-6.016-3.146-10.023-3.146z" stroke="#FE5B65"/>
  </g>
  <defs>
    <clipPath id="z5BSBEyWaZbpa">
      <path fill="#fff" d="M0 0h520v216H0z"/>
    </clipPath>
  </defs>
</svg>
